HIERARCHY
ROOT Hips
{
	OFFSET 0.000000 0.000000 0.000000
	CHANNELS 6 Xposition Yposition Zposition Zrotation Yrotation Xrotation 
	JOINT LHipJoint
	{
		OFFSET 0.000000 0.000000 0.000000
		CHANNELS 3 Zrotation Yrotation Xrotation
		JOINT LeftUpLeg
		{
			OFFSET 1.363060 -1.794630 0.839290
			CHANNELS 3 Zrotation Yrotation Xrotation
			JOINT LeftLeg
			{
				OFFSET 2.448110 -6.726130 0.000000
				CHANNELS 3 Zrotation Yrotation Xrotation
				JOINT LeftFoot
				{
					OFFSET 2.562200 -7.039590 0.000000
					CHANNELS 3 Zrotation Yrotation Xrotation
					JOINT LeftToeBase
					{
						OFFSET 0.157640 -0.433110 2.322550
						CHANNELS 3 Zrotation Yrotation Xrotation
						End Site
						{
							OFFSET 0.000000 0.000000 0.000000
						}
					}
				}
			}
		}
	}
	JOINT RHipJoint
	{
		OFFSET 0.000000 0.000000 0.000000
		CHANNELS 3 Zrotation Yrotation Xrotation
		JOINT RightUpLeg
		{
			OFFSET -1.305520 -1.794630 0.839290
			CHANNELS 3 Zrotation Yrotation Xrotation
			JOINT RightLeg
			{
				OFFSET -2.542530 -6.985550 0.000000
				CHANNELS 3 Zrotation Yrotation Xrotation
				JOINT RightFoot
				{
					OFFSET -2.568260 -7.056230 0.000000
					CHANNELS 3 Zrotation Yrotation Xrotation
					JOINT RightToeBase
					{
						OFFSET -0.164730 -0.452590 2.363150
						CHANNELS 3 Zrotation Yrotation Xrotation
						End Site
						{
							OFFSET 0.000000 0.000000 0.000000
						}
					}
				}
			}
		}
	}
	JOINT LowerBack
	{
		OFFSET 0.000000 0.000000 0.000000
		CHANNELS 3 Zrotation Yrotation Xrotation
		JOINT Spine
		{
			OFFSET 0.028270 2.035590 -0.193380
			CHANNELS 3 Zrotation Yrotation Xrotation
			JOINT Spine1
			{
				OFFSET 0.056720 2.048850 -0.042750
				CHANNELS 3 Zrotation Yrotation Xrotation
				JOINT Neck
				{
					OFFSET 0.000000 0.000000 0.000000
					CHANNELS 3 Zrotation Yrotation Xrotation
					JOINT Neck1
					{
						OFFSET -0.054170 1.746240 0.172020
						CHANNELS 3 Zrotation Yrotation Xrotation
						JOINT Head
						{
							OFFSET 0.104070 1.761360 -0.123970
							CHANNELS 3 Zrotation Yrotation Xrotation
							End Site
							{
								OFFSET 0.000000 0.000000 0.000000
							}
						}
					}
				}
				JOINT LeftShoulder
				{
					OFFSET 0.000000 0.000000 0.000000
					CHANNELS 3 Zrotation Yrotation Xrotation
					JOINT LeftArm
					{
						OFFSET 3.362410 1.200890 -0.311210
						CHANNELS 3 Zrotation Yrotation Xrotation
						JOINT LeftForeArm
						{
							OFFSET 4.983000 -0.000000 -0.000000
							CHANNELS 3 Zrotation Yrotation Xrotation
							JOINT LeftHand
							{
								OFFSET 3.483560 -0.000000 -0.000000
								CHANNELS 3 Zrotation Yrotation Xrotation
								JOINT LeftFingerBase
								{
									OFFSET 0.000000 0.000000 0.000000
									CHANNELS 3 Zrotation Yrotation Xrotation
									JOINT LeftHandIndex1
									{
										OFFSET 0.715260 -0.000000 -0.000000
										CHANNELS 3 Zrotation Yrotation Xrotation
										End Site
										{
											OFFSET 0.000000 0.000000 0.000000
										}
									}
								}
								JOINT LThumb
								{
									OFFSET 0.000000 0.000000 0.000000
									CHANNELS 3 Zrotation Yrotation Xrotation
									End Site
									{
										OFFSET 0.000000 0.000000 0.000000
									}
								}
							}
						}
					}
				}
				JOINT RightShoulder
				{
					OFFSET 0.000000 0.000000 0.000000
					CHANNELS 3 Zrotation Yrotation Xrotation
					JOINT RightArm
					{
						OFFSET -3.136600 1.374050 -0.404650
						CHANNELS 3 Zrotation Yrotation Xrotation
						JOINT RightForeArm
						{
							OFFSET -5.241900 -0.000000 -0.000000
							CHANNELS 3 Zrotation Yrotation Xrotation
							JOINT RightHand
							{
								OFFSET -3.444170 -0.000000 -0.000000
								CHANNELS 3 Zrotation Yrotation Xrotation
								JOINT RightFingerBase
								{
									OFFSET 0.000000 0.000000 0.000000
									CHANNELS 3 Zrotation Yrotation Xrotation
									JOINT RightHandIndex1
									{
										OFFSET -0.622530 -0.000000 -0.000000
										CHANNELS 3 Zrotation Yrotation Xrotation
										End Site
										{
											OFFSET 0.000000 0.000000 0.000000
										}
									}
								}
								JOINT RThumb
								{
									OFFSET 0.000000 0.000000 0.000000
									CHANNELS 3 Zrotation Yrotation Xrotation
									End Site
									{
										OFFSET 0.000000 0.000000 0.000000
									}
								}
							}
						}
					}
				}
			}
		}
	}
}
MOTION
Frames: 6
Frame Time: 0.033333
4.611907 16.748859 -27.276810 89.130083 -33.077290 -33.493847 -113.325218 -48.952237 76.717418 7.212057 21.109210 -53.103860 -82.849708 63.336452 -71.450646 -38.276857 19.818650 -14.025345 -0.629420 0.250707 -72.979312 33.646059 -9.505444 -104.839157 65.980730 -80.453902 -100.368426 108.511740 -43.225710 -97.454365 1.824874 -9.896740 -6.691665 -1.324217 0.233991 -6.217712 -52.339537 78.613048 43.830972 -170.912431 71.443492 -178.565106 170.796795 78.102350 162.302110 -23.974879 17.174756 5.787929 13.714875 -13.993737 -6.094364 0.405915 -0.502712 0.476222 78.607507 54.648917 -42.281816 -124.696269 85.553549 -162.954687 -40.687321 16.396210 -107.527903 -22.149569 -14.869686 47.202915 1.618052 15.176592 18.334614 -0.433275 -0.405744 0.417587 0.312295 0.465736 -0.451514 130.217963 64.295287 151.113754 43.433681 40.702863 148.957015 -20.081851 -27.663226 106.843734 -18.738822 27.721838 -62.715370 -5.378379 4.223201 -78.927416 -0.468269 0.421013 -0.532717 -0.455872 -0.403608 -0.347222 
4.457268 16.864180 -26.687843 89.686603 -34.571628 -33.259638 -113.057552 -50.386792 75.574122 7.649928 22.928509 -52.489340 -86.692973 65.517843 -69.847973 -39.866221 16.748556 -11.115214 0.025143 0.492284 -71.183198 32.153473 -10.247806 -106.204298 72.560376 -84.905827 -105.925689 111.393767 -42.552216 -93.495386 4.088798 -5.701829 -3.137812 -1.201720 0.225398 -4.500440 -47.105316 76.741774 49.500717 -167.717488 70.752830 -173.751942 170.553543 78.400381 161.779396 -21.416742 12.320946 10.220438 19.490899 -19.528568 -6.106518 0.563671 -0.590003 0.427781 77.811904 55.307949 -44.183267 176.431941 86.437615 136.872933 -37.806648 15.590264 -106.075877 -22.333122 -14.307790 41.722861 -0.349175 17.184031 14.127822 -0.516087 -0.513649 0.378353 0.405190 0.413139 -0.431318 125.570866 62.976230 146.701666 40.183128 43.594494 145.329896 -19.880599 -25.810887 109.119264 -16.967850 28.210963 -56.720302 2.957814 14.687215 -86.055561 -0.629708 0.620850 -0.540290 -0.491538 -0.512891 -0.422440 
4.279159 16.988617 -26.124699 89.652506 -36.003463 -32.430626 -109.956344 -51.866555 72.005914 7.042618 24.739878 -50.696368 -90.245471 64.463575 -66.369081 -41.899162 18.228192 -8.561669 2.058203 0.855557 -65.821537 30.869936 -10.388500 -105.780002 89.210030 -85.241590 -124.065002 111.974499 -43.329970 -90.844200 2.830849 -1.609325 -4.400944 -0.770522 0.007189 -3.430379 -49.973594 76.526729 47.314938 -169.093287 71.216550 -174.338668 -177.354567 77.656260 174.404858 -17.678878 8.287472 16.849763 22.737011 -12.948315 -7.416167 0.457627 -0.497583 0.508514 78.754689 54.258934 -44.426594 161.931562 80.595596 119.694537 -38.957135 13.467697 -107.493882 -11.950203 -13.193064 40.281794 -7.326926 13.125905 3.488257 -0.456838 -0.610355 0.657950 0.450157 0.458314 -0.593254 119.183529 61.334085 139.015127 37.047359 46.091209 142.888313 -17.930578 -26.182084 111.525676 -23.398443 33.279326 -45.952369 11.990095 23.582308 -78.276573 -0.393361 0.345626 -0.438895 -0.512055 -0.585122 -0.598697 
4.101165 17.103043 -25.590736 88.852130 -36.225004 -31.937827 -108.993308 -49.929380 71.324472 10.911692 26.279770 -49.941285 -95.765108 65.636451 -65.518906 -42.095673 19.866599 -3.981684 3.325263 0.910766 -57.517909 30.128780 -11.370099 -105.926444 97.006703 -84.857769 -135.704382 114.564623 -47.193956 -95.018919 0.715826 0.459516 -5.409924 -0.234071 -0.116456 -5.227959 -47.858028 76.193327 51.126469 -168.263979 72.471839 -172.183398 -174.464646 76.917719 178.170764 -20.727723 8.578469 17.441741 28.310062 -8.115113 -6.259046 0.495563 -0.595793 0.374733 79.812458 54.703486 -40.764418 162.991051 77.115387 120.191033 -39.801380 9.974695 -112.362496 -10.612447 -12.153627 47.918826 -10.912307 7.969562 0.616822 -0.647698 -0.389005 0.548091 0.626472 0.457792 -0.529618 118.216572 59.241406 137.713338 34.728543 47.905255 139.977042 -17.401585 -22.144390 116.118044 -19.893777 33.593283 -37.674401 15.572173 30.874607 -77.854766 -0.476559 0.619555 -0.614262 -0.610530 -0.409744 -0.451872 
3.935486 17.202600 -25.089479 88.698265 -36.993968 -31.025299 -109.213535 -48.097599 70.703219 18.179914 30.054538 -47.436836 -104.045349 66.016120 -65.357139 -33.820149 22.361761 -2.194878 4.205921 0.710027 -46.628519 30.674697 -10.618721 -106.502621 85.285417 -84.227069 -126.183894 116.287178 -47.446960 -98.404268 -0.883470 -1.414575 -5.776254 0.419147 -0.365101 -6.511211 -48.302871 77.194870 51.177093 -171.743299 74.316374 -175.963092 179.502771 76.374398 172.249930 -24.827371 6.680544 18.373888 26.307967 -0.404022 -4.362156 0.682719 -0.267510 0.567294 81.910187 53.633872 -37.652522 154.031069 73.835004 114.283736 -37.414586 5.538539 -116.019852 -9.750265 -8.312509 51.729632 -12.678029 4.619822 -1.759855 -0.484788 -0.483198 0.577167 0.440026 0.529376 -0.461108 119.530429 57.984108 137.427401 35.956359 47.722943 141.347674 -18.494029 -18.028089 118.621548 -29.444943 39.342061 -38.874178 18.949707 35.201280 -76.995452 -0.553771 0.629119 -0.332237 -0.340386 -0.504385 -0.528534 
3.771840 17.289322 -24.620636 89.190363 -36.962642 -30.541353 -110.374007 -46.052188 69.938891 25.817686 32.654782 -44.320812 -111.846987 67.758630 -66.643977 -29.644388 23.208797 -3.321842 3.647083 0.414119 -37.030383 29.767320 -10.105986 -106.854042 86.944160 -84.427404 -129.708090 117.751548 -47.217779 -99.876855 -3.284677 -3.843604 -5.282368 1.130525 -0.561689 -7.956517 -49.219237 78.057456 51.720478 -170.320862 74.660549 -175.933819 172.815081 77.087254 164.412648 -25.080078 8.711035 18.312768 25.498658 2.544131 -0.794695 0.404055 -0.661073 0.481666 83.430155 54.231300 -32.738190 150.122345 75.310663 114.320068 -30.605160 4.026802 -120.334039 -17.512656 -2.192229 55.432734 -12.846410 1.795285 2.579741 -0.454616 -0.465798 0.628350 0.609293 0.462037 -0.573863 122.678121 56.621261 140.613456 37.432385 48.926073 140.301493 -19.384031 -15.684389 122.253453 -37.393761 40.618413 -41.656806 17.340693 37.668101 -78.855035 -0.502160 0.504996 -0.568580 -0.664176 -0.544062 -0.492940 
